#!OML:ASF F:\VICON\USERDATA\INSTALL\rory3\rory3.ASF
:FULLY-SPECIFIED
:DEGREES
241
root 1.49642 23.1168 2.01876 -3.36725 9.21386 -0.98085
lowerback 9.43107 -1.66539 0.480051
upperback -0.464711 -2.08917 1.26827
thorax -5.74875 -1.0226 1.3518
lowerneck -14.431 -2.23071 -6.49015
upperneck 11.4278 -2.46118 5.42334
head 5.97194 -1.05875 2.5535
rclavicle 2.26894e-014 -9.54166e-015
rhumerus -51.0601 19.6002 -77.836
rradius 48.3376
rwrist -1.00071
rhand -30.6548 -1.38797
rfingers 7.12502
rthumb -3.94976 -31.3311
lclavicle 2.26894e-014 -9.54166e-015
lhumerus -33.9982 -13.3164 69.2847
lradius 53.9473
lwrist 9.33666
lhand -29.5885 18.9603
lfingers 7.12502
lthumb -2.92005 48.92
rfemur -11.8495 9.77918 16.9174
rtibia 31.6109
rfoot 8.96986 -17.7482
rtoes -5.9146
lfemur -3.62778 -5.40594 -18.317
ltibia 17.2811
lfoot 15.9864 15.6641
ltoes -3.58982
242
root 1.49929 22.7413 2.03069 -3.56925 9.27216 -1.14191
lowerback 9.47492 -1.66904 0.454905
upperback -0.378052 -2.09338 1.33277
thorax -5.67898 -1.02339 1.43326
lowerneck -14.2387 -2.22241 -6.48845
upperneck 11.124 -2.45958 5.47416
head 5.84423 -1.05603 2.56874
rclavicle 9.98311e-015 -1.59028e-015
rhumerus -51.5783 20.5706 -78.0071
rradius 50.2549
rwrist -1.12288
rhand -31.3475 -1.17043
rfingers 7.12502
rthumb -4.61873 -31.1001
lclavicle 9.98311e-015 -1.59028e-015
lhumerus -33.7278 -14.262 68.6857
lradius 56.1254
lwrist 10.0004
lhand -29.7592 17.9743
lfingers 7.12502
lthumb -3.08495 47.9317
rfemur -12.4007 9.07213 17.1408
rtibia 33.2474
rfoot 9.39927 -16.5728
rtoes -5.87454
lfemur -4.07102 -5.20111 -18.1699
ltibia 18.6155
lfoot 16.353 15.6997
ltoes -1.84746
243
root 1.50129 22.3545 2.03938 -3.78447 9.29942 -1.21335
lowerback 9.56591 -1.65491 0.352469
upperback -0.270259 -2.08535 1.34445
thorax -5.61301 -1.01678 1.50238
lowerneck -14.0559 -2.19273 -6.3887
upperneck 10.8459 -2.44492 5.498
head 5.72412 -1.04491 2.56069
rclavicle -2.50803e-014 1.11319e-014
rhumerus -51.9669 21.4915 -78.2051
rradius 51.918
rwrist -1.37962
rhand -32.2406 -0.959956
rfingers 7.12502
rthumb -5.48099 -30.8691
lclavicle -2.50803e-014 1.11319e-014
lhumerus -33.3092 -15.1901 67.9716
lradius 58.3753
lwrist 10.8057
lhand -30.4964 16.9566
lfingers 7.12502
lthumb -3.79679 46.9025
rfemur -13.0243 8.37648 17.2853
rtibia 35.1412
rfoot 9.93006 -15.0915
rtoes -5.05994
lfemur -4.59656 -4.88656 -18.1012
ltibia 20.1754
lfoot 17.2489 15.0921
ltoes -0.438246
244
root 1.50185 21.9526 2.04194 -4.05213 9.29529 -1.15847
lowerback 9.84681 -1.60352 0.138956
upperback -0.153919 -2.0419 1.29806
thorax -5.64411 -0.989773 1.57478
lowerneck -13.8699 -2.23889 -6.41406
upperneck 10.4866 -2.52492 5.66883
head 5.58775 -1.07439 2.61097
rclavicle -2.1197e-014 -7.95139e-016
rhumerus -52.2098 22.2309 -78.301
rradius 53.419
rwrist -1.59357
rhand -32.086 -1.78725
rfingers 7.12502
rthumb -5.33175 -31.7002
lclavicle -2.1197e-014 -7.95139e-016
lhumerus -32.7705 -15.8602 66.9872
lradius 60.6268
lwrist 11.0699
lhand -30.09 16.9215
lfingers 7.12502
lthumb -3.40435 46.8741
rfemur -13.6105 7.69443 17.3161
rtibia 37.1767
rfoot 10.5814 -13.4292
rtoes -3.59973
lfemur -5.18309 -4.40457 -18.1495
ltibia 21.9578
lfoot 18.5554 13.8049
ltoes 0.473446
245
root 1.49998 21.5359 2.03938 -4.39512 9.17155 -1.18771
lowerback 10.2749 -1.50783 -0.0191329
upperback -0.00434816 -1.93187 1.27271
thorax -5.72608 -0.930891 1.6322
lowerneck -13.7562 -2.31794 -6.49164
upperneck 10.0843 -2.64148 5.90984
head 5.45455 -1.11816 2.68846
rclavicle 4.10351e-014 5.56597e-015
rhumerus -52.3138 22.8668 -78.2883
rradius 54.8249
rwrist -1.67004
rhand -32.3995 -2.0513
rfingers 7.12502
rthumb -5.63444 -31.9564
lclavicle 4.10351e-014 5.56597e-015
lhumerus -32.0788 -16.3749 65.8447
lradius 62.9067
lwrist 11.2386
lhand -28.931 18.6287
lfingers 7.12502
lthumb -2.28502 48.5963
rfemur -14.2052 7.07095 17.4843
rtibia 39.2729
rfoot 11.4599 -11.7078
rtoes -3.23265
lfemur -5.77743 -3.86799 -18.1179
ltibia 23.8662
lfoot 19.6756 12.0053
ltoes -0.980435
246
root 1.49857 21.1062 2.03713 -4.73804 9.05389 -1.28409
lowerback 10.6893 -1.40484 -0.112554
upperback 0.166835 -1.80438 1.26931
thorax -5.77946 -0.865301 1.67161
lowerneck -13.7699 -2.38783 -6.50911
upperneck 9.80891 -2.74518 6.091
head 5.38038 -1.15618 2.73837
rclavicle 1.47846e-014 -1.27222e-014
rhumerus -52.2116 23.4224 -78.1907
rradius 55.9544
rwrist -1.72094
rhand -34.0148 -0.479717
rfingers 7.12502
rthumb -7.19385 -30.3374
lclavicle 1.47846e-014 -1.27222e-014
lhumerus -31.2225 -16.9081 64.7083
lradius 65.2312
lwrist 11.8816
lhand -28.6538 19.3541
lfingers 7.12502
lthumb -2.01735 49.3243
rfemur -14.7964 6.46539 17.746
rtibia 41.3452
rfoot 12.3789 -10.0743
rtoes -3.56282
lfemur -6.43876 -3.41404 -18.0374
ltibia 25.8906
lfoot 20.3726 10.127
ltoes -2.16145
247
root 1.49606 20.6669 2.03318 -5.12562 9.00377 -1.45357
lowerback 11.1437 -1.31749 -0.137796
upperback 0.330009 -1.68901 1.27237
thorax -5.86509 -0.807233 1.68163
lowerneck -13.4825 -2.45604 -6.50295
upperneck 9.32539 -2.85407 6.22718
head 5.19117 -1.20452 2.77033
rclavicle -4.86091e-015 2.18663e-015
rhumerus -51.9721 23.9249 -78.1112
rradius 56.7208
rwrist -1.90497
rhand -35.0262 0.46823
rfingers 7.12502
rthumb -8.17002 -29.3538
lclavicle -4.86091e-015 2.18663e-015
lhumerus -30.2171 -17.269 63.5282
lradius 67.3983
lwrist 12.2565
lhand -28.8765 17.8196
lfingers 7.12502
lthumb -2.23246 47.7877
rfemur -15.3134 5.90628 18.1099
rtibia 43.3575
rfoot 13.1921 -8.60036
rtoes -3.27722
lfemur -7.15687 -3.10659 -17.8853
ltibia 28.0267
lfoot 21.5127 8.36149
ltoes -0.544628
248
root 1.49389 20.2134 2.02517 -5.5207 8.88724 -1.7569
lowerback 11.6536 -1.23405 0.013988
upperback 0.410897 -1.55577 1.25728
thorax -6.07414 -0.744421 1.57198
lowerneck -12.8496 -2.46163 -6.38456
upperneck 8.70613 -2.90858 6.33567
head 4.89804 -1.23111 2.78177
rclavicle -2.17436e-014 5.1684e-015
rhumerus -51.6712 24.2978 -78.1184
rradius 57.1358
rwrist -2.19584
rhand -35.4312 0.734935
rfingers 7.12502
rthumb -8.56093 -29.0715
lclavicle -2.17436e-014 5.1684e-015
lhumerus -29.2493 -17.5313 62.2333
lradius 69.5168
lwrist 12.2485
lhand -29.0015 16.7594
lfingers 7.12502
lthumb -2.3532 46.7262
rfemur -15.8706 5.44843 18.6381
rtibia 45.3724
rfoot 13.448 -7.28603
rtoes -4.25988
lfemur -8.14518 -2.95642 -17.5598
ltibia 30.8163
lfoot 16.7444 6.6446
ltoes -12.3397
249
root 1.49204 19.7424 2.01486 -5.93387 8.79682 -1.8957
lowerback 12.2058 -1.14256 0.0486277
upperback 0.533239 -1.43119 1.16996
thorax -6.26054 -0.684094 1.45226
lowerneck -12.2102 -2.44872 -6.21848
upperneck 7.99787 -2.93921 6.44628
head 4.57563 -1.24617 2.78857
rclavicle -2.39318e-015 -1.63997e-014
rhumerus -51.1729 24.5579 -78.0687
rradius 57.293
rwrist -2.37264
rhand -35.8867 1.09859
rfingers 7.12502
rthumb -9.00051 -28.6894
lclavicle -2.39318e-015 -1.63997e-014
lhumerus -28.1485 -17.7592 60.8588
lradius 71.5622
lwrist 12.2476
lhand -29.4322 17.4199
lfingers 7.12502
lthumb -2.76912 47.3816
rfemur -16.3196 5.07364 18.9794
rtibia 47.3194
rfoot 12.3005 -6.49102
rtoes -6.1006
lfemur -9.27002 -2.78469 -17.3746
ltibia 34.426
lfoot 7.83445 3.83997
ltoes -18.2845
